<?xml version="1.0" encoding="UTF-8" standalone="no"?>
<!DOCTYPE svg PUBLIC "-//W3C//DTD SVG 1.1//EN" "http://www.w3.org/Graphics/SVG/1.1/DTD/svg11.dtd">
<!-- Created with Vectornator (http://vectornator.io/) -->
<svg height="90.0pt" stroke-miterlimit="10" style="fill-rule:nonzero;clip-rule:evenodd;stroke-linecap:round;stroke-linejoin:round;" version="1.1" viewBox="0 0 160 90" width="160.0pt" xml:space="preserve" xmlns="http://www.w3.org/2000/svg" xmlns:xlink="http://www.w3.org/1999/xlink">
<defs>
<filter color-interpolation-filters="sRGB" filterUnits="userSpaceOnUse" height="50.3312" id="Filter" width="39.7357" x="13.4103" y="20.894">
<feGaussianBlur in="SourceGraphic" result="Blur" stdDeviation="1.58983"/>
</filter>
<linearGradient gradientTransform="matrix(-31.7865 7.53094e-15 -7.53094e-15 -31.7865 47.0522 43.9406)" gradientUnits="userSpaceOnUse" id="LinearGradient" x1="0" x2="1" y1="0" y2="0">
<stop offset="0" stop-color="#d4d4d3"/>
<stop offset="0.01" stop-color="#fafafa"/>
<stop offset="0.89" stop-color="#f3f3f3"/>
<stop offset="0.9" stop-color="#fefefe"/>
<stop offset="0.92" stop-color="#f4f4f4"/>
<stop offset="0.93" stop-color="#dddddc"/>
<stop offset="0.98" stop-color="#eeeeee"/>
<stop offset="0.99" stop-color="#f2f2f2"/>
<stop offset="1" stop-color="#e0dfdf"/>
</linearGradient>
<linearGradient gradientTransform="matrix(-1.20879e-10 -42.3821 42.3821 -1.20879e-10 31.159 65.1316)" gradientUnits="userSpaceOnUse" id="LinearGradient_2" x1="0" x2="1" y1="0" y2="0">
<stop offset="0" stop-color="#d4d4d3"/>
<stop offset="0.01" stop-color="#f2f2f2" stop-opacity="0"/>
<stop offset="0.99" stop-color="#ffffff" stop-opacity="0"/>
<stop offset="1" stop-color="#ffffff" stop-opacity="0.78"/>
</linearGradient>
</defs>
<g id="Layer">
<path d="M0 0L160 0L160 90L0 90L0 0Z" fill="#e6e6e5" fill-rule="nonzero" opacity="1" stroke="none"/>
<g opacity="1">
<g opacity="1">
<path d="M136.78 38.8925C136.78 39.6347 137.492 40.2372 138.369 40.2372C138.79 40.2372 139.195 40.096 139.493 39.8432C139.791 39.5917 139.958 39.2488 139.958 38.8925L139.958 36.8755L144.726 36.8755M136.78 33.5139L139.958 33.5139L139.958 30.8246M138.369 43.5988C136.683 43.5988 135.067 43.0327 133.875 42.0242C132.682 41.0144 132.013 39.6469 132.013 38.2202L132.013 31.4969C132.013 28.5266 134.859 26.1183 138.369 26.1183C141.879 26.1183 144.726 28.5266 144.726 31.4969M131.218 39.9316L130.129 39.9316C129.996 39.9316 129.869 39.8788 129.775 39.7849C129.681 39.691 129.629 39.5648 129.629 39.4314M124.861 30.8853L124.861 41.5994C124.861 42.704 125.756 43.5988 126.862 43.5988M132.013 26.9129L129.629 26.9129L129.629 24.5292L124.861 24.5292L124.861 26.9129L122.478 26.9129L122.478 30.8853M109.765 31.4969C109.765 30.0703 110.434 28.7028 111.627 27.6943C112.819 26.6858 114.435 26.1183 116.121 26.1183C119.632 26.1183 122.478 28.5266 122.478 31.4969M114.532 38.2202C114.532 38.5765 114.699 38.9194 114.998 39.1708C115.295 39.4236 115.7 39.5648 116.121 39.5648C116.542 39.5648 116.948 39.4236 117.245 39.1708C117.544 38.9194 117.71 38.5765 117.71 38.2202L117.71 31.4969C117.71 31.1406 117.544 30.7991 117.245 30.5463M111.626 42.0242C110.434 41.0157 109.765 39.6482 109.765 38.2229M95.4626 31.7278L95.4626 43.5987M100.23 22.94L95.4626 22.94L95.4626 25.8357M109.765 22.94L104.997 22.94L104.997 34.0639M100.23 34.0639L104.997 43.5987M89.106 27.7074C89.106 27.7074 89.4318 27.3832 89.7878 27.0272C90.3678 26.4456 91.1576 26.1182 91.9792 26.1182L95.4626 26.1182M89.106 26.1182L84.3386 26.1182L84.3386 43.5987M76.393 37.2421L71.6256 37.2421M79.5713 37.4455C79.5713 37.8746 79.5713 38.8313 79.5713 38.8313C79.5713 38.8313 79.5713 39.6258 77.9821 39.6258C76.393 39.6258 76.393 38.8313 76.393 38.8313M71.6256 33.0484C71.6256 33.6618 71.999 34.2133 72.568 34.4421M84.3386 29.2965C84.3386 29.2965 84.3386 26.1182 77.9821 26.1182C71.6256 26.1182 71.6256 29.2965 71.6256 29.2965M79.5713 30.8856L79.5713 32.4747M84.3386 36.6685C84.3386 36.0551 83.9652 35.5036 83.3963 35.2764C81.537 34.5327 77.5006 32.9181 76.5821 32.551M71.6256 40.4204C71.6256 40.4204 71.6256 41.7941 73.4317 42.7352M62.0908 43.5987L60.5017 34.0639M66.8582 43.5987L66.8582 34.0639M63.6799 32.4747L65.2691 22.94L71.6256 22.94M55.7343 43.5987L55.7343 22.94L62.0908 22.94" fill="none" opacity="1" stroke="#b2b1b0" stroke-linecap="butt" stroke-linejoin="round" stroke-width="1"/>
<path d="M55.7343 43.5939L60.5155 43.5939L60.5017 34.0639M122.484 30.8751L124.859 30.8751M133.891 42.0001C135.082 43.0086 136.673 43.5939 138.359 43.5939C141.87 43.5939 144.734 41.1892 144.734 38.2189L144.734 36.8751M136.766 33.5001L136.766 30.8126C136.766 30.0704 137.482 29.4689 138.359 29.4689C139.236 29.4689 139.953 30.0704 139.953 30.8126M79.578 32.4689L84.328 32.5001M114.547 38.2189L114.547 31.4689C114.547 31.1125 114.686 30.7842 114.984 30.5314C115.281 30.2799 115.688 30.1251 116.109 30.1251C116.53 30.1251 116.937 30.2799 117.234 30.5314M71.6405 37.2189L71.6405 33.0314C71.6405 33.6448 72.0091 34.2088 72.578 34.4376C74.4373 35.1797 79.3905 37.1564 79.3905 37.1564M62.078 43.5939L65.2655 43.5939L66.8593 34.0626M66.8593 43.5939L71.6405 43.5939L71.6256 40.5044M63.6718 32.4689L62.078 22.9376M73.3367 42.6737C74.2733 43.192 75.7273 43.5939 77.9843 43.5939C84.3408 43.5939 84.3386 40.4204 84.3386 40.4204M71.6405 29.2814L71.6405 22.9376M89.1093 27.6876L89.1093 26.0939M95.453 43.5939L100.234 43.5939L100.23 34.0639M76.3905 38.8126L76.3905 37.2189M76.3905 32.2501C76.3905 31.8226 76.3905 30.8751 76.3905 30.8751C76.3905 30.8751 76.3952 30.0626 77.9843 30.0626C79.5734 30.0626 79.578 30.8751 79.578 30.8751M84.328 43.5939L89.1093 43.5939L89.1093 34.7814C89.1093 33.9598 89.4355 33.1426 90.0155 32.5626C90.5972 31.981 91.3799 31.6564 92.203 31.6564C93.8176 31.6564 95.4626 31.6802 95.4626 31.6802M104.984 34.0626L100.234 22.9376M104.984 43.5939L109.766 43.5939L109.765 38.2229M111.641 42.0001C112.832 43.0086 114.425 43.5939 116.109 43.5939C117.794 43.5939 119.417 43.0086 120.609 42.0001C121.801 40.9916 122.484 39.6442 122.484 38.2189L122.484 30.8751M109.766 31.4689L109.766 22.9376M129.641 26.9064L129.641 24.5001M126.859 43.5939C128.722 43.5939 131.203 43.5939 131.203 43.5939L131.203 39.9064M129.766 39.7814C129.672 39.6875 129.641 39.5398 129.641 39.4064C129.641 37.5097 129.641 30.8751 129.641 30.8751L132.016 30.8751L132.016 26.9064M136.766 38.8751L136.766 35.5314L144.734 35.5314L144.734 31.4689" fill="none" opacity="1" stroke="#ffffff" stroke-linecap="round" stroke-linejoin="round" stroke-width="1"/>
<path d="M55.7343 22.9489L55.7343 43.6051L60.5155 43.6051L60.5155 34.0739L62.078 43.6051L65.2655 43.6051L66.8593 34.0739L66.8593 43.6051L71.6405 43.6051L71.6405 40.4176C71.6405 40.4176 71.6278 43.6051 77.9843 43.6051C84.3408 43.6051 84.3281 40.4176 84.328 40.4176L84.328 43.6051L89.1093 43.6051L89.1093 34.7926C89.1093 33.971 89.4355 33.1539 90.0155 32.5739C90.5972 31.9922 91.3799 31.6676 92.203 31.6676C93.8176 31.6676 95.453 31.6676 95.453 31.6676L95.453 43.6051L100.234 43.6051L100.234 34.0739L104.984 43.6051L109.766 43.6051L109.766 38.2301C109.766 39.6554 110.449 41.0029 111.641 42.0114C112.832 43.0198 114.425 43.6051 116.109 43.6051C117.794 43.6051 119.417 43.0198 120.609 42.0114C121.801 41.0029 122.484 39.6554 122.484 38.2301L122.484 31.4801C122.484 28.5098 119.62 26.1051 116.109 26.1051C114.423 26.1051 112.832 26.6904 111.641 27.6989C110.447 28.7073 109.766 30.0534 109.766 31.4801L109.766 22.9489L104.984 22.9489L104.984 34.0739L100.234 22.9489L95.453 22.9489L95.453 26.1051L91.9843 26.1051C91.1627 26.1051 90.3768 26.4297 89.7968 27.0114C89.4408 27.3673 89.1093 27.6989 89.1093 27.6989L89.1093 26.1051L84.328 26.1051L84.328 29.2926C84.328 29.2926 84.3408 26.1051 77.9843 26.1051C71.6278 26.1051 71.6405 29.2926 71.6405 29.2926L71.6405 22.9489L65.2655 22.9489L63.6718 32.4801L62.078 22.9489L55.7343 22.9489ZM124.859 24.5114L124.859 26.9176L122.484 26.9176L122.484 30.8864L124.859 30.8864L124.859 41.6051C124.859 42.7097 125.753 43.6051 126.859 43.6051C128.722 43.6051 131.203 43.6051 131.203 43.6051L131.203 39.9176L130.141 39.9176C130.007 39.9176 129.859 39.8865 129.766 39.7926C129.672 39.6987 129.641 39.5511 129.641 39.4176C129.641 37.5209 129.641 30.8864 129.641 30.8864L132.016 30.8864L132.016 26.9176L129.641 26.9176L129.641 24.5114L124.859 24.5114ZM138.359 26.1051C134.849 26.1051 132.016 28.5098 132.016 31.4801L132.016 38.2301C132.016 39.6568 132.697 41.0015 133.891 42.0114C135.082 43.0198 136.673 43.6051 138.359 43.6051C141.87 43.6051 144.734 41.2004 144.734 38.2301L144.734 36.8864L139.953 36.8864L139.953 38.8864C139.953 39.2427 139.783 39.6037 139.484 39.8551C139.187 40.1079 138.78 40.2301 138.359 40.2301C137.482 40.2301 136.766 39.6286 136.766 38.8864L136.766 35.5426L144.734 35.5426L144.734 31.4801C144.734 28.5098 141.87 26.1051 138.359 26.1051ZM138.359 29.4801C139.236 29.4801 139.953 30.0816 139.953 30.8239L139.953 33.5114L136.766 33.5114L136.766 30.8239C136.766 30.0816 137.482 29.4801 138.359 29.4801ZM77.9843 30.0739C79.5734 30.0739 79.578 30.8864 79.578 30.8864L79.578 32.4801L84.328 32.5114L84.328 36.6676C84.328 36.0542 83.9595 35.4886 83.3905 35.2614C81.5313 34.5176 77.4966 32.9097 76.578 32.5426C76.4636 32.4965 76.3905 32.3853 76.3905 32.2614C76.3905 31.8339 76.3905 30.8864 76.3905 30.8864C76.3905 30.8864 76.3952 30.0739 77.9843 30.0739ZM116.109 30.1364C116.53 30.1364 116.937 30.2912 117.234 30.5426C117.533 30.7954 117.703 31.1238 117.703 31.4801L117.703 38.2301C117.703 38.5864 117.533 38.9162 117.234 39.1676C116.937 39.4204 116.53 39.5739 116.109 39.5739C115.688 39.5739 115.281 39.4204 114.984 39.1676C114.686 38.9162 114.547 38.5864 114.547 38.2301L114.547 31.4801C114.547 31.1238 114.686 30.7954 114.984 30.5426C115.281 30.2912 115.688 30.1364 116.109 30.1364ZM71.6405 33.0426C71.6405 33.656 72.0091 34.22 72.578 34.4489C74.4373 35.191 78.472 36.7989 79.3905 37.1676C79.505 37.2121 79.578 37.3265 79.578 37.4489C79.578 37.8779 79.578 38.8239 79.578 38.8239C79.578 38.8239 79.5734 39.6364 77.9843 39.6364C76.3952 39.6364 76.3906 38.8239 76.3905 38.8239L76.3905 37.2301L71.6405 37.2301L71.6405 33.0426Z" fill="#f6f6f6" fill-rule="nonzero" opacity="1" stroke="none"/>
</g>
<g opacity="1">
<path d="M55.7409 47L144.732 47" fill="none" opacity="1" stroke="#747372" stroke-linecap="round" stroke-linejoin="round" stroke-width="0.238284"/>
<g fill="#5a5a58" opacity="1" stroke="none">
<path d="M62.5805 54.5175C62.54 54.774 62.3465 55.2465 62.108 55.6695C61.5905 56.583 60.9065 57.177 59.8895 57.609C60.011 57.735 60.047 57.7845 60.119 57.924C60.8705 57.546 61.3745 57.1815 61.8155 56.6775C62.225 56.2185 62.5355 55.6785 62.8415 54.9045C62.918 54.711 62.918 54.711 62.954 54.6435L62.5805 54.5175Z"/>
<path d="M64.1555 56.4165C64.2905 56.403 64.385 56.3985 64.7135 56.3985L67.3235 56.3985C67.625 56.3985 67.7285 56.403 67.8725 56.4165L67.8725 56.052C67.733 56.07 67.661 56.0745 67.328 56.0745L64.7135 56.0745C64.4075 56.0745 64.286 56.07 64.1555 56.0475L64.1555 56.4165Z"/>
<path d="M69.983 58.0995C69.965 57.9735 69.9605 57.8745 69.9605 57.6225L69.9605 56.268C69.9605 56.1555 69.956 56.0925 69.9425 56.0025L69.9515 55.998C69.992 56.0295 70.0235 56.0475 70.091 56.0745C70.7255 56.3355 71.3465 56.6685 71.7695 56.9655L71.963 56.6325C71.1755 56.178 70.6535 55.9305 69.9605 55.683L69.9605 54.8415C69.9605 54.585 69.965 54.4905 69.983 54.3735L69.596 54.3735C69.614 54.486 69.623 54.594 69.623 54.8325L69.623 57.627C69.623 57.87 69.614 57.978 69.596 58.0995L69.983 58.0995Z"/>
<path d="M74.3255 54.9315C73.8665 54.9315 73.5245 54.9135 73.3625 54.882L73.358 55.1925C73.4075 55.188 73.4165 55.188 73.457 55.188C73.4705 55.188 73.5065 55.188 73.529 55.188C73.6955 55.1925 74.1185 55.2015 74.1905 55.2015C74.213 55.2015 74.258 55.197 74.276 55.1925C74.249 55.2375 74.249 55.2375 74.2355 55.26C73.9115 55.836 73.538 56.3085 73.2275 56.547L73.4795 56.799C73.5515 56.6775 73.6505 56.574 73.826 56.4255C74.1905 56.115 74.546 55.9485 74.8295 55.9485C75.041 55.9485 75.149 56.0565 75.185 56.304C74.8835 56.4345 74.6675 56.5515 74.5145 56.664C74.2085 56.8935 74.0555 57.1275 74.0555 57.375C74.0555 57.8385 74.447 58.068 75.2525 58.068C75.599 58.068 75.9905 58.0365 76.346 57.978C76.436 57.9645 76.4585 57.96 76.526 57.9555L76.4855 57.609C76.229 57.7125 75.7295 57.7845 75.284 57.7845C74.6495 57.7845 74.3705 57.654 74.3705 57.357C74.3705 57.087 74.6045 56.8755 75.2165 56.5875C75.221 56.6415 75.221 56.6505 75.221 56.7225C75.221 56.997 75.2075 57.2715 75.194 57.3705L75.5 57.366C75.491 57.303 75.491 57.267 75.491 57.204C75.491 57.1635 75.491 57.1005 75.4955 57.0015C75.5 56.9115 75.5 56.8125 75.5 56.754C75.5 56.6415 75.5 56.5965 75.491 56.4795C76.0535 56.259 76.4585 56.124 76.6925 56.0835L76.5485 55.7685C76.4765 55.818 76.463 55.8225 76.2425 55.899C76.0445 55.971 75.788 56.0655 75.4595 56.196C75.401 55.863 75.1985 55.6965 74.8655 55.6965C74.6315 55.6965 74.393 55.773 74.186 55.917C74.141 55.9485 74.141 55.9485 73.979 56.0745C73.9745 56.07 73.9745 56.07 73.97 56.061C73.97 56.061 73.97 56.061 73.97 56.0565C73.97 56.0565 73.9745 56.0565 73.9745 56.052C73.979 56.0475 74.0015 56.0295 74.033 56.007C74.051 55.9935 74.141 55.89 74.186 55.836C74.3435 55.6425 74.456 55.4625 74.591 55.197C75.1355 55.179 75.608 55.143 76.076 55.08C76.157 55.0665 76.184 55.062 76.256 55.0575L76.229 54.7515C75.9815 54.8325 75.5315 54.8865 74.8115 54.9225C74.771 54.9225 74.771 54.9225 74.717 54.927C74.7395 54.8865 74.798 54.765 74.8565 54.621C74.933 54.4365 74.933 54.4365 74.9735 54.378L74.6135 54.315C74.6 54.459 74.546 54.6165 74.3975 54.9315L74.3255 54.9315Z"/>
<path d="M77.7005 55.7955C77.822 55.764 77.858 55.755 77.9615 55.737C78.002 55.728 78.218 55.692 78.605 55.6335C78.4565 56.214 78.3215 56.61 78.11 57.06C77.9525 57.402 77.7815 57.699 77.642 57.8745L77.948 58.0545C78.0875 57.8025 78.182 57.6225 78.2405 57.5145C78.5465 56.8935 78.7535 56.3175 78.92 55.6065C79.0865 55.5885 79.145 55.584 79.244 55.584C79.6625 55.584 79.7975 55.737 79.7975 56.214C79.7975 56.718 79.73 57.177 79.6085 57.465C79.55 57.609 79.4645 57.681 79.352 57.681C79.19 57.681 78.938 57.6045 78.6815 57.474C78.695 57.555 78.695 57.5865 78.695 57.654C78.695 57.7125 78.695 57.744 78.686 57.8115C78.983 57.9375 79.172 57.987 79.3655 57.987C79.577 57.987 79.6985 57.9285 79.8065 57.7755C79.991 57.5145 80.108 56.916 80.108 56.2275C80.108 55.8585 80.045 55.6515 79.8875 55.503C79.748 55.368 79.559 55.314 79.2395 55.314C79.136 55.314 79.0775 55.3185 78.974 55.3275C79.0145 55.1115 79.046 54.945 79.0685 54.8145C79.109 54.558 79.1225 54.4815 79.154 54.3825L78.794 54.342C78.794 54.369 78.794 54.3915 78.794 54.4005C78.794 54.5895 78.7355 55.0215 78.659 55.3545C78.2945 55.413 77.8265 55.467 77.6645 55.4715L77.7005 55.7955ZM80.3555 55.2015C80.792 55.647 81.1025 56.196 81.2735 56.817L81.5615 56.6505C81.35 56.016 81.08 55.5525 80.621 55.0575L80.3555 55.2015Z"/>
<path d="M84.5495 54.333C84.392 54.5805 83.8295 55.107 83.231 55.566C82.9025 55.818 82.9025 55.818 82.8485 55.872C82.763 55.962 82.718 56.0655 82.718 56.1735C82.718 56.3265 82.79 56.4255 83.042 56.6235C83.699 57.1365 83.879 57.285 84.1805 57.564C84.4775 57.8385 84.653 58.0275 84.761 58.1805L85.0445 57.9015C84.995 57.861 84.986 57.8565 84.9185 57.789C84.257 57.1635 84.131 57.06 83.4785 56.5605C83.114 56.277 83.078 56.2455 83.078 56.1645C83.078 56.1015 83.1095 56.0655 83.276 55.9395C83.843 55.503 84.086 55.3005 84.311 55.089C84.779 54.639 84.815 54.6075 84.8645 54.567L84.5495 54.333Z"/>
<path d="M88.28 54.333C88.298 54.441 88.298 54.477 88.3025 54.6975C88.307 55.341 88.3385 56.2095 88.3745 56.727C88.3745 56.7405 88.3745 56.7495 88.3745 56.754C88.379 56.772 88.379 56.7765 88.379 56.7945C88.3655 56.7855 88.3655 56.7855 88.3565 56.7855C88.3385 56.7855 88.3385 56.781 88.316 56.7765C88.2215 56.754 88.0595 56.736 87.9245 56.736C87.2855 56.736 86.867 57.015 86.867 57.447C86.867 57.861 87.2225 58.113 87.803 58.113C88.1765 58.113 88.4645 58.0005 88.604 57.8025C88.676 57.7035 88.7165 57.537 88.7165 57.348C88.7165 57.2895 88.7075 57.204 88.6985 57.1545C88.739 57.177 88.7435 57.177 88.8065 57.204C88.9595 57.2715 89.207 57.411 89.414 57.5505C89.657 57.7125 89.7875 57.825 89.882 57.942L90.0935 57.627C89.981 57.5595 89.981 57.555 89.8865 57.4875C89.4185 57.15 89.0495 56.952 88.685 56.8485C88.6625 56.5605 88.64 56.124 88.6265 55.6875C89 55.6785 89.306 55.6515 89.711 55.5885C89.9045 55.5615 89.9045 55.5615 89.981 55.557L89.9405 55.224C89.693 55.323 89.117 55.395 88.622 55.395C88.613 55.0755 88.613 55.026 88.613 54.927C88.613 54.576 88.6175 54.4455 88.64 54.333L88.28 54.333ZM88.3835 57.0825C88.388 57.0825 88.397 57.2625 88.397 57.33C88.397 57.501 88.3655 57.5955 88.289 57.6675C88.181 57.762 88.0055 57.816 87.7895 57.816C87.551 57.816 87.344 57.7485 87.2495 57.636C87.209 57.591 87.182 57.5145 87.182 57.4425C87.182 57.1815 87.461 57.0195 87.92 57.0195C88.0955 57.0195 88.199 57.033 88.3835 57.0825Z"/>
<path d="M92.0105 54.72C92.6135 54.891 93.167 54.9765 93.9005 55.017L93.95 54.693C93.212 54.684 92.5595 54.5805 92.1185 54.414L92.0105 54.72ZM91.5425 56.1825C91.8935 56.0385 92.7935 55.881 93.257 55.881C93.491 55.881 93.698 55.917 93.8105 55.98C93.995 56.079 94.0985 56.259 94.0985 56.484C94.0985 56.691 94.022 56.8935 93.869 57.096C93.761 57.2355 93.662 57.3165 93.482 57.4155C93.104 57.6315 92.6945 57.7485 92.2175 57.78C92.285 57.888 92.303 57.9285 92.3615 58.1085C93.032 57.9825 93.3245 57.888 93.6665 57.681C94.166 57.375 94.4405 56.9475 94.4405 56.466C94.4405 56.1555 94.31 55.908 94.058 55.7505C93.8735 55.6335 93.6215 55.5795 93.284 55.5795C92.9285 55.5795 92.51 55.629 91.9115 55.7415C91.5605 55.809 91.5605 55.809 91.457 55.818L91.5425 56.1825Z"/>
<path d="M96.137 54.45C96.128 54.5535 96.119 54.5985 96.074 54.81C95.9255 55.476 95.8715 55.953 95.8715 56.592C95.8715 57.0645 95.903 57.3885 95.9885 57.8655C96.002 57.951 96.0065 57.9735 96.0155 58.0455L96.3395 58.0185C96.3395 57.987 96.3395 57.9645 96.3395 57.951C96.3395 57.699 96.5015 57.159 96.704 56.7135L96.488 56.61C96.344 56.9385 96.2585 57.186 96.1955 57.4875C96.1775 57.249 96.1685 56.9835 96.1685 56.6325C96.1685 56.0925 96.209 55.6965 96.3035 55.224C96.371 54.918 96.425 54.6975 96.4925 54.504L96.137 54.45ZM97.064 55.3005C97.3565 55.332 97.532 55.3455 97.784 55.3455C98.1305 55.3455 98.4905 55.323 98.7515 55.287C98.9495 55.26 99.053 55.2465 99.062 55.2465L99.0395 54.927C98.738 55.008 98.333 55.0485 97.8335 55.0485C97.4825 55.0485 97.262 55.0305 97.0685 54.981L97.064 55.3005ZM97.3925 56.178C97.1135 56.4975 97.001 56.7405 97.001 57.015C97.001 57.1815 97.046 57.3165 97.136 57.429C97.3295 57.663 97.6535 57.771 98.1665 57.771C98.4725 57.771 98.774 57.744 99.089 57.681C99.179 57.6675 99.188 57.663 99.2465 57.6585L99.2015 57.312C98.9585 57.411 98.576 57.4695 98.1665 57.4695C97.586 57.4695 97.3025 57.3075 97.3025 56.9745C97.3025 56.7765 97.415 56.5605 97.64 56.313L97.3925 56.178Z"/>
<path d="M103.225 57.933C103.243 57.834 103.243 57.8295 103.342 57.4875L104.057 55.026C104.129 54.774 104.165 54.666 104.233 54.513L103.783 54.513C103.774 54.6435 103.742 54.8055 103.697 54.981L103.166 56.925L103.045 57.4425C102.955 57.0915 102.937 57.024 102.91 56.925L102.307 54.954C102.253 54.783 102.221 54.648 102.199 54.513L101.861 54.513C101.848 54.6165 101.807 54.792 101.758 54.954L101.155 56.9295C101.119 57.051 101.065 57.2625 101.02 57.4425C100.957 57.168 100.93 57.042 100.898 56.934L100.367 54.981C100.318 54.7965 100.291 54.648 100.282 54.513L99.827 54.513C99.899 54.6615 99.9395 54.7785 100.012 55.026L100.723 57.4875C100.831 57.852 100.831 57.852 100.844 57.933L101.191 57.933C101.213 57.8205 101.231 57.744 101.308 57.501L101.897 55.557C101.924 55.467 101.983 55.233 102.014 55.116C102.014 55.098 102.023 55.071 102.032 55.0395C102.064 55.2105 102.104 55.3635 102.163 55.557L102.757 57.501C102.815 57.681 102.856 57.843 102.874 57.933L103.225 57.933Z"/>
<path d="M106.735 56.772C106.726 56.6505 106.708 56.475 106.703 56.4255C106.613 55.8225 106.195 55.449 105.614 55.449C104.939 55.449 104.498 55.953 104.498 56.7225C104.498 57.501 104.944 57.996 105.65 57.996C105.979 57.996 106.253 57.888 106.465 57.681C106.568 57.5775 106.627 57.4965 106.712 57.3075L106.397 57.1815C106.271 57.528 106.019 57.708 105.655 57.708C105.385 57.708 105.164 57.6 105.02 57.402C104.899 57.24 104.854 57.0735 104.84 56.772L106.735 56.772ZM104.854 56.4885C104.881 56.3175 104.903 56.2365 104.966 56.124C105.101 55.872 105.331 55.7325 105.605 55.7325C105.821 55.7325 105.997 55.8 106.136 55.935C106.28 56.0745 106.348 56.2365 106.375 56.4885L104.854 56.4885Z"/>
<path d="M107.617 57.933L107.617 57.681C107.617 57.6225 107.612 57.5865 107.603 57.501C107.675 57.609 107.716 57.6585 107.815 57.735C108.022 57.906 108.229 57.978 108.512 57.978C109.214 57.978 109.637 57.501 109.637 56.709C109.637 55.926 109.223 55.458 108.53 55.458C108.121 55.458 107.815 55.62 107.603 55.953C107.617 55.836 107.621 55.755 107.621 55.6335L107.621 55.026C107.621 54.81 107.63 54.6795 107.653 54.513L107.257 54.513C107.279 54.6885 107.288 54.8325 107.288 55.0215L107.288 57.4155C107.288 57.6315 107.279 57.762 107.257 57.933L107.617 57.933ZM109.291 56.7045C109.291 57.321 108.994 57.6855 108.49 57.6855C107.972 57.6855 107.621 57.2895 107.621 56.709C107.621 56.133 107.972 55.746 108.503 55.746C109.003 55.746 109.291 56.097 109.291 56.7045Z"/>
<path d="M111.406 55.314L111.406 54.783C111.406 54.576 111.406 54.54 111.424 54.4185L111.059 54.4185C111.073 54.522 111.077 54.603 111.077 54.7965L111.077 55.314L110.704 55.314C110.438 55.314 110.339 55.3095 110.177 55.287L110.177 55.629C110.33 55.611 110.461 55.6065 110.699 55.6065L111.077 55.6065L111.077 56.3445C111.077 56.538 111.073 56.6235 111.059 56.7225L111.424 56.7225C111.41 56.61 111.406 56.5515 111.406 56.358L111.406 55.6065L112.774 55.6065C112.769 55.971 112.765 56.1105 112.756 56.2545C112.715 56.799 112.589 57.096 112.274 57.3795C112.036 57.591 111.806 57.708 111.415 57.8205C111.523 57.9285 111.559 57.978 111.617 58.104C111.865 58.014 111.982 57.96 112.139 57.8745C112.463 57.6855 112.715 57.429 112.873 57.132C113.039 56.808 113.084 56.52 113.093 55.6065L113.489 55.6065C113.728 55.6065 113.858 55.611 114.011 55.629L114.011 55.287C113.849 55.3095 113.75 55.314 113.485 55.314L113.098 55.314C113.098 54.9405 113.098 54.9405 113.098 54.8415C113.102 54.54 113.102 54.54 113.116 54.423L112.765 54.423C112.778 54.522 112.778 54.558 112.778 54.8775L112.778 55.314L111.406 55.314Z"/>
<path d="M117.733 54.387C117.607 54.5985 117.292 54.9135 116.873 55.2375C116.162 55.7955 115.384 56.1825 114.538 56.403C114.628 56.5155 114.65 56.5605 114.713 56.7045C115.537 56.4255 115.865 56.277 116.45 55.917L116.45 57.627C116.45 57.8745 116.446 57.978 116.423 58.095L116.815 58.095C116.797 57.9735 116.792 57.8745 116.792 57.618L116.792 55.701C117.179 55.422 117.562 55.0935 117.845 54.7965C117.958 54.675 117.962 54.666 118.043 54.6075L117.733 54.387Z"/>
<path d="M120.428 58.0995C120.41 57.9735 120.406 57.8745 120.406 57.6225L120.406 56.268C120.406 56.1555 120.401 56.0925 120.388 56.0025L120.397 55.998C120.437 56.0295 120.469 56.0475 120.536 56.0745C121.171 56.3355 121.792 56.6685 122.215 56.9655L122.408 56.6325C121.621 56.178 121.099 55.9305 120.406 55.683L120.406 54.8415C120.406 54.585 120.41 54.4905 120.428 54.3735L120.041 54.3735C120.059 54.486 120.068 54.594 120.068 54.8325L120.068 57.627C120.068 57.87 120.059 57.978 120.041 58.0995L120.428 58.0995Z"/>
<path d="M124.771 54.9315C124.312 54.9315 123.97 54.9135 123.808 54.882L123.803 55.1925C123.853 55.188 123.862 55.188 123.902 55.188C123.916 55.188 123.952 55.188 123.974 55.188C124.141 55.1925 124.564 55.2015 124.636 55.2015C124.658 55.2015 124.703 55.197 124.721 55.1925C124.694 55.2375 124.694 55.2375 124.681 55.26C124.357 55.836 123.983 56.3085 123.673 56.547L123.925 56.799C123.997 56.6775 124.096 56.574 124.271 56.4255C124.636 56.115 124.991 55.9485 125.275 55.9485C125.486 55.9485 125.594 56.0565 125.63 56.304C125.329 56.4345 125.113 56.5515 124.96 56.664C124.654 56.8935 124.501 57.1275 124.501 57.375C124.501 57.8385 124.892 58.068 125.698 58.068C126.044 58.068 126.436 58.0365 126.791 57.978C126.881 57.9645 126.904 57.96 126.971 57.9555L126.931 57.609C126.674 57.7125 126.175 57.7845 125.729 57.7845C125.095 57.7845 124.816 57.654 124.816 57.357C124.816 57.087 125.05 56.8755 125.662 56.5875C125.666 56.6415 125.666 56.6505 125.666 56.7225C125.666 56.997 125.653 57.2715 125.639 57.3705L125.945 57.366C125.936 57.303 125.936 57.267 125.936 57.204C125.936 57.1635 125.936 57.1005 125.941 57.0015C125.945 56.9115 125.945 56.8125 125.945 56.754C125.945 56.6415 125.945 56.5965 125.936 56.4795C126.499 56.259 126.904 56.124 127.138 56.0835L126.994 55.7685C126.922 55.818 126.908 55.8225 126.688 55.899C126.49 55.971 126.233 56.0655 125.905 56.196C125.846 55.863 125.644 55.6965 125.311 55.6965C125.077 55.6965 124.838 55.773 124.631 55.917C124.586 55.9485 124.586 55.9485 124.424 56.0745C124.42 56.07 124.42 56.07 124.415 56.061C124.415 56.061 124.415 56.061 124.415 56.0565C124.415 56.0565 124.42 56.0565 124.42 56.052C124.424 56.0475 124.447 56.0295 124.478 56.007C124.496 55.9935 124.586 55.89 124.631 55.836C124.789 55.6425 124.901 55.4625 125.036 55.197C125.581 55.179 126.053 55.143 126.521 55.08C126.602 55.0665 126.629 55.062 126.701 55.0575L126.674 54.7515C126.427 54.8325 125.977 54.8865 125.257 54.9225C125.216 54.9225 125.216 54.9225 125.162 54.927C125.185 54.8865 125.243 54.765 125.302 54.621C125.378 54.4365 125.378 54.4365 125.419 54.378L125.059 54.315C125.045 54.459 124.991 54.6165 124.843 54.9315L124.771 54.9315Z"/>
<path d="M130.198 55.1745L130.198 57.834C130.198 58.0725 130.189 58.1985 130.171 58.3065L130.517 58.3065C130.495 58.194 130.486 58.0545 130.486 57.834L130.486 57.1455L131.413 57.1455C131.57 57.1455 131.687 57.1545 131.809 57.1725L131.809 56.862C131.683 56.88 131.575 56.889 131.413 56.889L130.486 56.889L130.486 56.16L131.399 56.16C131.552 56.16 131.656 56.169 131.795 56.187L131.795 55.8765C131.669 55.8945 131.566 55.9035 131.399 55.9035L130.486 55.9035L130.486 55.1745L131.543 55.1745C131.732 55.1745 131.84 55.179 131.953 55.197L131.953 54.891C131.822 54.9135 131.723 54.918 131.543 54.918L130.117 54.918C130.184 54.7605 130.207 54.702 130.27 54.5175C130.31 54.4005 130.324 54.369 130.36 54.288L130.045 54.1845C130.031 54.3375 129.964 54.558 129.856 54.8235C129.653 55.3095 129.41 55.683 129.059 56.0565C129.194 56.151 129.194 56.151 129.284 56.2725C129.581 55.9215 129.788 55.602 130 55.1745L130.198 55.1745ZM128.996 54.1845C128.969 54.36 128.911 54.5535 128.807 54.7875C128.569 55.332 128.254 55.7775 127.858 56.1375C127.966 56.2455 127.966 56.2455 128.047 56.376C128.308 56.1105 128.447 55.9305 128.605 55.665C128.591 55.9305 128.587 56.052 128.587 56.2455L128.587 57.7395C128.587 57.9555 128.578 58.113 128.555 58.2885L128.906 58.2885C128.884 58.14 128.875 57.951 128.875 57.7485L128.875 55.287C129.046 54.9495 129.104 54.819 129.208 54.54C129.244 54.45 129.257 54.4095 129.311 54.288L128.996 54.1845Z"/>
<path d="M133.294 54.945C133.393 54.9315 133.438 54.927 133.537 54.9225C134.221 54.9 134.761 54.8685 134.905 54.8415C134.932 54.837 134.932 54.837 134.945 54.837L134.954 54.846L134.936 54.864C134.927 54.873 134.918 54.882 134.918 54.882C134.882 54.918 134.882 54.918 134.855 54.945C134.545 55.251 133.834 55.8765 133.352 56.259C133.046 56.5065 132.884 56.6235 132.722 56.718L132.925 57.006C133.447 56.5245 134.158 56.2365 134.819 56.2365C135.427 56.2365 135.787 56.493 135.787 56.925C135.787 57.3075 135.539 57.582 135.067 57.7125C135.004 57.5145 134.954 57.4065 134.86 57.2805C134.68 57.042 134.419 56.9115 134.117 56.9115C133.744 56.9115 133.465 57.1365 133.465 57.438C133.465 57.852 133.829 58.086 134.464 58.086C135.463 58.086 136.115 57.6225 136.115 56.9205C136.115 56.3445 135.634 55.9755 134.882 55.9755C134.486 55.9755 134.122 56.07 133.78 56.2545L133.771 56.241C134.086 56.0385 134.63 55.5705 135.251 54.963C135.395 54.8235 135.418 54.8055 135.481 54.774L135.292 54.5265C135.233 54.558 135.193 54.567 135.076 54.576C134.671 54.6075 134.072 54.6345 133.699 54.6345C133.483 54.6345 133.402 54.63 133.276 54.6075L133.294 54.945ZM134.77 57.7935C134.608 57.8205 134.554 57.825 134.441 57.825C134.248 57.825 134.054 57.7845 133.937 57.7215C133.816 57.6495 133.757 57.564 133.757 57.447C133.757 57.276 133.897 57.168 134.122 57.168C134.446 57.168 134.671 57.384 134.77 57.7935Z"/>
<path d="M137.632 56.9025C137.258 56.9025 136.957 57.204 136.957 57.5775C136.957 57.951 137.258 58.2525 137.632 58.2525C138.005 58.2525 138.307 57.951 138.307 57.5775C138.307 57.204 138.005 56.9025 137.632 56.9025ZM137.632 57.159C137.861 57.159 138.05 57.348 138.05 57.5775C138.05 57.807 137.861 57.996 137.632 57.996C137.402 57.996 137.213 57.807 137.213 57.5775C137.213 57.348 137.402 57.159 137.632 57.159Z"/>
</g>
<path d="M55.7409 64.9092L144.732 64.9092" fill="none" opacity="1" stroke="#747372" stroke-linecap="round" stroke-linejoin="round" stroke-width="0.238284"/>
</g>
<g opacity="1">
<path d="M48.6332 24.8686C48.7751 24.8686 48.9129 24.9258 49.0135 25.0264C49.1142 25.1271 49.1714 25.2648 49.1714 25.4079C49.1714 29.965 49.1714 62.0101 49.1714 66.6827C49.1714 66.9963 48.9171 67.2506 48.6035 67.2506C44.6853 67.2506 21.7078 67.2506 17.9146 67.2506C17.6222 67.2506 17.3849 67.0133 17.3849 66.7208C17.3849 62.1838 17.3849 29.9353 17.3849 25.3983C17.3849 25.1059 17.6222 24.8686 17.9146 24.8686C21.7174 24.8686 44.8008 24.8686 48.6332 24.8686Z" fill="#b3b3b2" fill-rule="evenodd" filter="url(#Filter)" opacity="1" stroke="none"/>
<path d="M46.514 22.7494C46.656 22.7494 46.7937 22.8066 46.8944 22.9072C46.995 23.0079 47.0522 23.1456 47.0522 23.2887C47.0522 27.8458 47.0522 59.8909 47.0522 64.5635C47.0522 64.8771 46.798 65.1314 46.4843 65.1314C42.5661 65.1314 19.5887 65.1314 15.7955 65.1314C15.503 65.1314 15.2657 64.8941 15.2657 64.6017C15.2657 60.0647 15.2657 27.8162 15.2657 23.2792C15.2657 22.9867 15.503 22.7494 15.7955 22.7494C19.5982 22.7494 42.6816 22.7494 46.514 22.7494Z" fill="url(#LinearGradient)" fill-rule="evenodd" opacity="1" stroke="none"/>
<path d="M46.514 22.7494C46.656 22.7494 46.7937 22.8066 46.8944 22.9072C46.995 23.0079 47.0522 23.1456 47.0522 23.2887C47.0522 27.8458 47.0522 59.8909 47.0522 64.5635C47.0522 64.8771 46.798 65.1314 46.4843 65.1314C42.5661 65.1314 19.5887 65.1314 15.7955 65.1314C15.503 65.1314 15.2657 64.8941 15.2657 64.6017C15.2657 60.0647 15.2657 27.8162 15.2657 23.2792C15.2657 22.9867 15.503 22.7494 15.7955 22.7494C19.5982 22.7494 42.6816 22.7494 46.514 22.7494Z" fill="url(#LinearGradient_2)" fill-rule="evenodd" opacity="1" stroke="none"/>
</g>
</g>
</g>
</svg>
